<?xml version="1.0" standalone="no"?>
<!DOCTYPE svg PUBLIC "-//W3C//DTD SVG 20010904//EN"
 "http://www.w3.org/TR/2001/REC-SVG-20010904/DTD/svg10.dtd">
<svg version="1.0" xmlns="http://www.w3.org/2000/svg"
 width="854.000000pt" height="854.000000pt" viewBox="0 0 854.000000 854.000000"
 preserveAspectRatio="xMidYMid meet">
<metadata>
Created by potrace 1.11, written by Peter Selinger 2001-2013
</metadata>
<g transform="translate(0.000000,854.000000) scale(0.100000,-0.100000)"
fill="#000000" stroke="none">
<path d="M4087 8524 c-1 -1 -52 -6 -112 -9 -61 -4 -119 -9 -130 -11 -11 -3
-43 -7 -71 -9 -49 -5 -81 -9 -154 -21 -19 -3 -43 -6 -52 -5 -10 0 -18 -3 -18
-7 0 -4 -21 -8 -47 -10 -26 -1 -50 -6 -53 -10 -3 -4 -12 -7 -20 -7 -8 1 -36
-5 -62 -11 -27 -7 -48 -10 -48 -7 0 3 -7 0 -15 -7 -8 -7 -15 -9 -15 -5 0 4 -6
2 -13 -4 -8 -6 -16 -8 -19 -5 -3 3 -21 -1 -39 -9 -19 -8 -42 -13 -52 -11 -9 1
-17 -3 -17 -9 0 -5 -3 -8 -6 -5 -5 5 -301 -90 -349 -112 -11 -5 -49 -21 -85
-36 -36 -14 -96 -41 -135 -59 -38 -18 -80 -36 -92 -40 -13 -3 -23 -11 -23 -16
0 -5 -6 -9 -13 -9 -8 0 -34 -11 -58 -25 -24 -13 -57 -31 -74 -40 -16 -8 -52
-28 -80 -45 -27 -17 -58 -33 -67 -36 -10 -4 -18 -11 -18 -16 0 -5 -4 -7 -9 -4
-5 3 -12 -1 -15 -10 -3 -8 -10 -12 -16 -9 -5 3 -10 2 -10 -3 0 -4 -16 -16 -35
-25 -19 -9 -42 -24 -52 -32 -10 -9 -63 -48 -118 -86 -55 -38 -101 -74 -103
-79 -2 -6 -8 -10 -13 -10 -8 0 -33 -18 -63 -45 -6 -6 -34 -29 -61 -50 -76 -60
-116 -98 -259 -240 -145 -145 -193 -196 -281 -306 -33 -41 -64 -79 -70 -85 -5
-7 -19 -24 -30 -40 -11 -15 -30 -40 -43 -55 -12 -15 -22 -30 -22 -33 0 -4 -4
-12 -10 -19 -46 -57 -60 -76 -60 -85 0 -6 -4 -12 -9 -14 -5 -1 -11 -10 -13
-18 -2 -8 -13 -26 -25 -40 -13 -13 -23 -30 -23 -37 0 -7 -4 -13 -10 -13 -5 0
-10 -5 -10 -11 0 -6 -14 -30 -30 -55 -17 -24 -27 -44 -23 -44 4 0 3 -4 -3 -8
-6 -4 -31 -45 -55 -92 -24 -47 -47 -87 -50 -90 -3 -3 -11 -21 -19 -40 -7 -19
-19 -42 -27 -51 -7 -8 -13 -20 -13 -25 0 -6 -10 -30 -22 -55 -11 -24 -21 -50
-21 -56 0 -7 -3 -13 -7 -13 -3 0 -14 -24 -25 -52 -10 -29 -21 -57 -25 -63 -6
-8 -27 -65 -37 -100 -1 -5 -20 -61 -42 -124 -22 -63 -38 -118 -35 -122 3 -5 0
-9 -6 -9 -6 0 -10 -6 -9 -12 1 -7 0 -20 -3 -28 -10 -28 -28 -95 -39 -145 -6
-27 -13 -59 -15 -70 -16 -66 -24 -108 -30 -148 -7 -48 -12 -72 -14 -72 -1 0
-4 -22 -6 -50 -3 -27 -10 -56 -17 -64 -10 -12 -9 -13 3 -6 12 7 13 6 5 -6 -6
-8 -10 -31 -10 -51 1 -21 -2 -38 -5 -38 -4 0 -6 -17 -4 -37 1 -21 -4 -41 -10
-45 -8 -6 -7 -8 2 -8 9 0 10 -5 4 -17 -5 -10 -9 -33 -7 -50 1 -19 -3 -33 -9
-33 -7 0 -7 -3 -1 -8 11 -8 15 -52 6 -52 -4 0 -5 -19 -3 -41 3 -32 1 -40 -8
-34 -9 6 -11 4 -4 -6 13 -22 15 -50 4 -64 -7 -8 -7 -15 -1 -19 5 -3 9 -22 9
-41 0 -24 -4 -33 -11 -28 -9 5 -9 3 -2 -8 6 -8 12 -27 14 -43 2 -21 -1 -26
-11 -20 -10 6 -11 5 -2 -7 6 -8 12 -32 13 -54 1 -21 4 -41 6 -43 2 -3 0 -13
-5 -23 -6 -10 -6 -20 -2 -23 4 -3 7 -24 7 -48 -1 -24 0 -47 3 -53 6 -10 8 -32
13 -117 1 -27 6 -48 10 -48 4 0 4 -14 -1 -30 -5 -19 -5 -28 1 -25 8 5 15 -51
10 -79 -1 -4 3 -14 8 -20 7 -9 5 -20 -6 -37 -16 -23 -16 -23 0 -10 14 11 17
11 18 0 2 -49 8 -87 17 -109 5 -14 8 -33 7 -42 -2 -10 0 -18 4 -18 4 0 8 -14
9 -31 1 -18 6 -37 9 -43 8 -13 12 -28 15 -73 2 -17 6 -29 11 -26 4 2 7 -10 7
-26 0 -17 4 -31 10 -31 5 0 9 -3 9 -7 -4 -26 3 -63 10 -58 6 3 8 -4 6 -16 -3
-13 0 -28 6 -35 6 -7 8 -18 4 -24 -3 -5 -2 -10 3 -10 5 0 12 -9 15 -20 3 -13
1 -18 -6 -13 -7 3 -5 -2 4 -13 21 -26 46 -94 44 -121 -1 -15 3 -19 13 -15 9 3
13 1 9 -4 -3 -6 3 -29 14 -53 10 -24 19 -52 19 -63 0 -12 4 -17 12 -12 8 5 9
2 5 -9 -4 -10 -1 -17 5 -17 6 0 8 -3 5 -7 -4 -3 -2 -12 4 -19 6 -8 9 -21 5
-29 -3 -9 -2 -13 4 -10 11 7 31 -35 23 -47 -2 -5 1 -8 6 -8 6 0 11 -9 11 -21
0 -11 4 -17 10 -14 9 5 15 -24 11 -48 -1 -5 3 -6 9 -2 5 3 10 -1 10 -10 0 -9
4 -14 9 -11 5 4 7 -4 3 -16 -4 -16 -2 -19 8 -13 9 5 11 4 6 -4 -4 -6 0 -18 9
-27 9 -9 14 -23 11 -31 -3 -8 -1 -11 4 -8 9 6 14 -8 11 -27 0 -5 6 -8 14 -8 8
0 14 -3 13 -8 -1 -8 13 -45 21 -52 16 -13 31 -52 25 -62 -4 -7 -3 -8 4 -4 6 4
18 -6 27 -23 18 -36 19 -44 3 -35 -8 4 -10 3 -5 -2 5 -5 13 -9 18 -9 6 0 18
-13 27 -30 9 -16 21 -33 26 -36 4 -4 2 -9 -5 -12 -10 -4 -8 -6 4 -6 11 -1 17
-7 15 -17 -2 -10 4 -19 12 -21 13 -4 13 -3 0 7 -10 8 -11 10 -2 8 8 -2 13 -8
13 -13 0 -6 7 -17 15 -26 8 -9 12 -24 8 -35 -4 -14 -3 -15 4 -6 7 10 13 7 25
-12 10 -14 17 -28 17 -31 0 -3 10 -17 23 -31 12 -13 30 -34 39 -44 10 -11 18
-27 18 -36 0 -8 3 -13 7 -11 5 3 13 -1 20 -8 10 -11 10 -15 0 -18 -7 -3 -4 -6
6 -6 10 -1 15 -5 12 -11 -3 -5 1 -10 9 -10 9 0 15 -6 14 -12 -2 -7 2 -12 8
-11 5 1 16 -7 23 -19 10 -16 10 -19 -1 -13 -7 4 7 -11 32 -34 25 -22 41 -41
37 -41 -4 0 -2 -6 5 -14 7 -8 16 -12 19 -10 7 4 23 -26 21 -38 -1 -5 3 -8 9
-8 17 0 41 -29 33 -41 -4 -8 -3 -9 5 -5 6 4 14 0 17 -8 3 -9 11 -13 17 -9 6 4
8 0 4 -10 -4 -11 -2 -14 9 -10 7 3 14 0 14 -7 0 -15 26 -41 34 -33 3 4 6 -1 6
-10 0 -9 4 -17 8 -17 10 0 122 -108 122 -118 0 -4 -6 -14 -13 -22 -6 -8 -3 -7
8 2 19 15 22 15 42 -2 12 -9 20 -20 17 -23 -3 -3 4 -8 15 -12 12 -3 21 -13 21
-21 0 -8 5 -12 10 -9 6 3 14 -4 19 -17 6 -13 10 -17 10 -10 1 7 6 10 11 7 6
-4 8 -11 5 -16 -4 -5 -1 -9 5 -9 6 0 8 -5 4 -12 -6 -10 -4 -10 8 0 13 10 17
10 23 -5 5 -10 8 -21 7 -25 -1 -4 5 -5 12 -2 16 6 83 -52 78 -68 -1 -5 2 -7 7
-4 13 8 42 -4 35 -15 -3 -5 2 -9 10 -9 9 0 16 -5 16 -11 0 -5 5 -7 10 -4 6 3
13 -1 16 -9 3 -9 12 -16 20 -16 8 0 14 -4 14 -9 0 -5 14 -14 30 -21 17 -7 30
-16 30 -21 0 -5 7 -9 15 -9 8 0 15 -4 15 -10 0 -5 7 -10 15 -10 8 0 15 -4 15
-10 0 -5 7 -10 16 -10 10 0 14 -6 11 -14 -4 -9 -1 -13 7 -10 16 6 68 -21 58
-31 -4 -5 1 -5 10 -2 23 8 23 -1 1 -27 -18 -21 -18 -21 4 -3 24 21 47 14 39
-12 -5 -13 -4 -13 8 2 12 16 14 16 20 2 3 -9 10 -13 16 -10 5 3 10 1 10 -4 0
-6 6 -11 13 -11 7 0 23 -9 35 -20 12 -12 22 -18 22 -14 0 3 6 1 13 -5 8 -6 18
-7 22 -3 5 4 6 0 2 -9 -4 -13 -1 -16 14 -12 10 3 19 0 19 -6 0 -6 7 -11 16
-11 9 0 29 -9 45 -21 16 -11 29 -17 29 -13 0 3 6 1 13 -5 8 -6 18 -7 22 -3 5
4 6 0 2 -9 -4 -13 -1 -16 14 -12 11 3 19 0 19 -6 0 -7 4 -10 9 -6 5 3 15 0 23
-7 14 -13 29 -19 60 -21 11 -1 18 -9 18 -22 0 -17 2 -18 11 -5 8 11 12 12 16
3 2 -7 11 -13 19 -13 10 0 12 -5 8 -12 -5 -9 -2 -9 9 1 9 7 17 9 17 3 0 -5 16
-13 35 -16 19 -4 40 -12 47 -19 7 -7 22 -12 33 -12 14 0 19 -7 18 -20 -1 -20
-1 -20 13 -1 8 11 14 15 14 10 0 -6 25 -17 55 -24 30 -7 52 -17 49 -21 -2 -4
4 -8 13 -7 10 0 29 -3 43 -7 14 -4 36 -9 50 -12 14 -3 31 -12 38 -21 9 -12 12
-13 12 -2 0 10 3 11 11 3 6 -6 18 -9 25 -6 8 3 14 0 14 -6 0 -6 6 -8 14 -5 8
3 17 1 20 -5 4 -6 13 -8 21 -4 9 3 21 1 28 -5 6 -5 19 -10 27 -10 33 -2 86
-14 97 -23 7 -7 13 -5 16 3 4 11 6 10 6 0 1 -7 6 -10 13 -6 8 5 9 2 4 -11 -7
-18 -6 -18 14 0 11 10 20 13 20 7 0 -7 12 -12 26 -12 14 0 23 -4 19 -10 -4 -7
2 -7 19 0 17 6 26 6 30 -3 3 -9 7 -8 15 3 9 13 11 12 12 -5 0 -11 3 -15 5 -8
3 7 14 9 32 4 15 -5 35 -7 45 -5 9 1 17 -3 17 -9 0 -7 5 -5 10 3 8 12 10 12
10 -5 0 -15 2 -17 9 -6 7 11 9 11 14 0 3 -8 6 -9 6 -3 1 8 14 9 41 4 22 -4 40
-5 40 -1 0 3 5 -1 10 -9 6 -9 13 -11 18 -5 8 12 44 17 37 5 -2 -4 31 -7 74 -6
56 1 77 -2 70 -10 -11 -13 19 -12 41 1 9 5 15 4 18 -4 3 -9 7 -9 20 1 12 10
16 10 19 1 3 -9 10 -10 24 -3 14 8 19 7 19 -1 0 -8 4 -8 15 1 11 9 15 9 15 1
0 -8 5 -9 19 -1 14 7 22 7 26 0 4 -6 11 -7 17 -4 17 11 122 12 136 1 6 -5 12
-6 12 -1 0 15 140 16 141 1 0 -6 4 -3 9 8 5 11 9 15 9 8 1 -7 8 -10 16 -7 8 4
12 11 8 17 -4 6 -1 7 8 1 20 -12 63 -12 72 1 4 6 10 5 16 -4 8 -12 12 -12 25
-2 9 7 27 11 41 9 14 -3 29 0 34 6 5 6 32 11 60 11 28 0 51 5 51 10 0 6 5 3
10 -5 6 -10 10 -11 10 -2 0 16 27 16 33 0 4 -8 6 -7 6 4 1 10 8 15 19 13 9 -1
24 1 33 6 10 5 21 3 29 -4 10 -9 11 -9 6 1 -7 12 9 16 47 13 9 -1 17 3 17 8 0
6 5 11 11 11 5 0 8 -4 4 -9 -3 -5 0 -13 6 -17 7 -4 9 -3 6 2 -3 6 -2 16 4 24
6 11 9 11 9 2 0 -9 5 -10 19 -2 11 5 31 11 45 12 15 1 26 7 26 12 0 6 5 5 11
-1 9 -9 16 -8 27 4 8 8 26 13 38 10 13 -2 21 0 18 4 -4 8 25 14 49 10 4 0 7 4
7 10 0 5 4 8 9 5 4 -3 31 3 60 13 28 11 51 17 51 14 0 -3 7 0 15 7 8 7 15 9
15 6 0 -4 10 -1 23 6 12 7 31 13 42 13 12 1 19 7 17 15 -3 11 0 11 12 0 12 -9
16 -9 16 -1 0 7 5 9 10 6 6 -3 10 -1 10 5 0 7 7 10 15 6 8 -3 15 -1 15 4 0 6
8 10 18 10 10 0 24 6 31 13 11 10 12 9 6 -3 -6 -10 -1 -8 13 4 12 11 22 15 22
10 0 -5 4 -4 8 1 7 10 63 34 90 39 8 1 17 7 20 12 4 5 14 9 22 9 8 0 21 5 28
12 8 7 18 11 23 8 5 -4 9 -2 9 3 0 5 11 14 25 20 19 9 25 9 26 -1 0 -6 4 -3 8
8 5 11 12 21 17 21 25 4 54 17 54 25 0 5 7 6 15 3 8 -4 15 -2 15 4 0 13 56 36
69 27 6 -3 9 0 5 8 -3 10 4 17 20 21 14 3 26 11 26 16 0 6 5 10 11 10 5 0 7
-6 3 -12 -4 -8 -3 -10 2 -5 5 5 9 13 9 19 0 6 8 12 18 14 10 1 27 10 38 20 10
9 19 14 19 10 0 -4 10 2 22 14 12 11 28 20 35 20 7 0 13 5 13 11 0 5 5 7 10 4
6 -3 13 0 16 8 3 9 16 18 30 21 13 4 24 11 24 16 0 6 5 10 11 10 6 0 17 7 26
15 8 8 19 13 24 10 5 -4 9 2 9 11 0 10 3 14 6 11 4 -4 15 3 25 15 15 16 22 18
33 9 11 -9 16 -9 22 0 5 8 3 9 -6 4 -8 -5 -11 -3 -8 6 3 8 11 13 17 11 6 -1
10 1 10 5 -3 20 2 24 16 13 13 -11 14 -10 10 2 -4 9 4 22 22 33 15 10 35 27
44 37 9 10 21 18 28 18 6 0 11 4 11 8 0 12 56 42 65 34 5 -4 5 -1 1 6 -4 6 0
19 8 28 9 8 16 12 16 8 0 -4 11 5 24 19 13 14 26 23 29 21 3 -3 8 4 12 15 3
12 9 21 13 21 4 0 20 11 36 25 16 14 33 25 38 25 5 0 6 5 2 12 -5 8 -2 9 10 5
9 -4 15 -3 12 2 -3 5 3 18 13 29 14 17 20 19 31 9 9 -8 11 -8 6 0 -8 15 4 44
15 37 5 -3 6 -10 3 -16 -4 -6 -2 -8 4 -4 6 3 9 16 7 27 -3 16 0 19 13 14 9 -3
13 -3 9 1 -9 9 13 35 24 28 5 -3 6 2 3 10 -4 11 0 16 11 16 9 0 14 3 12 8 -5
9 30 42 37 34 6 -5 10 13 7 30 -1 8 15 12 32 9 4 0 6 3 5 7 -3 9 44 71 90 119
12 13 22 27 22 31 0 9 51 57 61 57 4 0 11 4 16 9 4 5 3 6 -4 2 -6 -3 -14 -2
-17 3 -4 5 3 12 14 16 11 4 18 11 15 16 -4 5 -1 9 4 9 6 0 11 4 11 9 0 6 14
25 30 43 16 18 30 39 30 48 0 13 1 13 10 0 8 -12 10 -11 10 8 0 12 7 25 15 28
8 4 12 10 9 15 -3 5 0 9 6 9 6 0 8 5 5 10 -3 6 1 13 9 16 9 3 16 10 16 16 0
12 60 100 74 110 6 4 7 10 4 14 -4 3 -2 12 5 20 30 33 35 42 30 48 -4 3 -1 6
5 6 7 0 12 6 12 14 0 7 7 19 15 26 8 7 12 16 9 21 -3 5 0 9 5 9 6 0 10 3 9 8
-3 16 15 42 25 35 6 -4 8 0 4 10 -3 10 -2 17 4 17 6 0 7 5 4 10 -3 6 -1 10 5
10 6 0 8 5 5 10 -3 6 1 13 9 16 9 3 14 10 11 14 -3 5 2 16 11 24 8 9 13 16 9
16 -3 0 0 10 7 23 7 12 11 25 10 30 -1 4 3 7 9 7 5 0 7 5 4 10 -3 6 -1 10 5
10 6 0 8 5 5 10 -3 6 1 13 9 16 9 3 13 11 9 17 -3 5 2 16 12 24 11 7 13 13 7
13 -9 0 -9 5 0 22 7 13 17 26 22 29 5 4 5 13 1 20 -6 9 -4 11 7 6 11 -4 14 -1
11 13 -3 9 5 36 16 58 11 22 17 42 14 46 -4 3 -1 6 5 6 6 0 9 6 6 14 -3 7 3
16 13 20 15 6 15 8 3 16 -11 7 -12 10 -2 10 8 0 10 5 6 12 -5 8 -2 9 11 4 15
-5 16 -4 5 9 -8 10 -9 15 -2 15 6 0 9 7 6 15 -4 10 0 15 12 16 11 0 14 3 6 6
-6 2 -9 10 -5 16 14 22 14 49 1 42 -7 -4 -4 1 7 10 11 9 19 23 17 31 -2 8 2
14 7 14 6 0 7 7 4 17 -4 11 -3 14 5 9 7 -4 10 -2 6 7 -2 7 2 35 11 61 9 26 17
56 18 67 1 10 5 19 10 19 4 0 6 3 4 8 -3 4 4 41 14 82 10 41 21 86 24 100 3
14 8 39 11 55 4 17 7 40 8 52 1 12 5 25 8 28 4 4 4 13 1 21 -3 8 0 14 7 14 10
0 10 3 1 14 -7 9 -8 17 -2 20 5 3 8 17 6 31 -1 14 1 28 6 30 4 3 6 14 4 25 -2
11 1 22 7 26 6 4 5 10 -3 15 -11 7 -11 9 1 9 13 0 13 1 0 10 -8 5 -10 10 -3
10 6 0 10 11 8 25 -1 14 1 27 5 30 3 2 5 20 4 40 -2 26 0 34 9 28 8 -5 8 -2
-1 9 -9 11 -10 18 -2 23 7 4 7 12 0 25 -6 11 -6 21 -1 24 5 3 7 16 3 28 -4 15
-2 19 7 13 10 -6 11 -3 1 16 -10 17 -10 24 -2 27 9 3 9 9 2 23 -6 10 -7 19 -3
19 9 0 9 300 0 324 -4 9 -1 16 6 16 8 0 6 4 -3 10 -11 7 -11 10 -2 10 8 0 10
5 6 12 -5 7 -8 31 -9 53 0 22 -4 46 -8 53 -5 7 -3 12 5 12 8 0 9 3 3 8 -14 10
-15 42 -1 42 7 0 7 3 -2 8 -8 5 -13 34 -15 75 -1 37 -4 67 -7 67 -3 0 -6 17
-8 38 -2 34 -8 70 -12 82 -6 15 -4 37 5 49 7 11 7 13 -2 7 -9 -5 -13 0 -14 13
-1 12 -2 24 -3 29 -1 4 -6 27 -10 52 -4 25 -17 78 -27 118 -11 40 -20 84 -21
97 -1 14 -5 25 -9 25 -3 0 -6 6 -6 13 0 6 -4 26 -8 42 -4 17 -9 42 -12 58 -3
15 -10 27 -15 27 -6 0 -8 7 -5 15 4 8 2 17 -4 20 -5 4 -7 10 -4 15 3 5 0 12
-6 15 -5 4 -8 13 -5 21 3 8 0 14 -6 14 -6 0 -9 3 -5 6 3 4 0 19 -9 35 -8 16
-14 31 -14 34 0 3 0 6 -1 8 0 1 -2 9 -4 17 -10 39 -50 136 -60 142 -5 4 -7 8
-3 8 7 0 -43 120 -91 219 -17 36 -31 70 -31 78 0 7 -4 13 -8 13 -4 0 -20 27
-35 60 -16 33 -32 60 -38 60 -6 0 -8 4 -5 9 3 4 -8 29 -24 55 -17 26 -30 49
-30 52 0 3 -22 39 -50 81 -27 42 -50 78 -50 80 0 8 -73 110 -98 138 -7 8 -11
15 -8 15 3 0 -2 9 -11 19 -23 25 -33 38 -63 81 -13 19 -32 42 -42 51 -10 9
-18 21 -18 28 0 6 -9 16 -20 23 -11 7 -20 17 -20 21 0 5 -11 20 -25 35 -58 62
-85 95 -85 101 0 4 -11 14 -25 21 -14 7 -25 17 -25 22 0 13 -138 148 -150 148
-6 0 -9 3 -8 8 3 7 -22 33 -93 97 -58 52 -256 215 -262 215 -3 0 -17 11 -32
24 -14 13 -58 45 -98 72 -39 26 -73 52 -75 56 -2 4 -9 8 -16 8 -7 0 -21 8 -32
18 -19 16 -39 29 -89 56 -11 6 -22 13 -25 16 -6 6 -42 26 -85 49 -16 9 -33 21
-37 26 -5 7 -8 7 -8 0 0 -6 -3 -6 -8 0 -9 13 -252 138 -252 130 0 -4 -7 1 -16
9 -8 9 -24 16 -35 16 -10 0 -19 5 -19 10 0 6 -8 10 -18 10 -10 0 -26 6 -37 14
-11 7 -24 15 -30 16 -26 6 -42 13 -66 26 -14 7 -29 11 -32 7 -4 -3 -12 -1 -20
5 -17 15 -217 82 -217 74 0 -4 -4 -2 -8 3 -6 9 -61 27 -122 40 -8 2 -27 8 -42
14 -16 6 -28 8 -28 6 0 -2 -11 0 -26 5 -25 10 -79 22 -101 23 -7 0 -13 3 -13
6 0 3 -11 7 -25 8 -47 4 -55 6 -55 16 0 5 -6 4 -13 -2 -8 -6 -17 -7 -21 -3 -4
4 -12 8 -17 8 -5 1 -10 2 -11 4 -2 1 -23 4 -47 6 -25 3 -50 9 -57 15 -8 7 -14
7 -19 -1 -3 -6 -12 -7 -18 -3 -6 4 -23 8 -37 10 -14 1 -41 5 -60 7 -167 22
-253 27 -483 30 -120 1 -219 1 -220 0z"/>
<path d="M386 3062 c-3 -5 1 -9 9 -9 8 0 12 4 9 9 -3 4 -7 8 -9 8 -2 0 -6 -4
-9 -8z"/>
<path d="M433 2945 c0 -8 4 -12 9 -9 5 3 6 10 3 15 -9 13 -12 11 -12 -6z"/>
<path d="M7969 2463 c-13 -16 -12 -17 4 -4 16 13 21 21 13 21 -2 0 -10 -8 -17
-17z"/>
<path d="M7875 2451 c-3 -5 -2 -12 3 -15 5 -3 9 1 9 9 0 17 -3 19 -12 6z"/>
<path d="M736 2322 c-2 -4 -1 -14 4 -22 7 -11 9 -9 7 8 -1 24 -3 26 -11 14z"/>
<path d="M770 2219 c0 -5 5 -7 10 -4 6 3 10 8 10 11 0 2 -4 4 -10 4 -5 0 -10
-5 -10 -11z"/>
<path d="M7716 2175 c-9 -26 -7 -32 5 -12 6 10 9 21 6 23 -2 3 -7 -2 -11 -11z"/>
<path d="M854 2116 c1 -8 5 -18 8 -22 4 -3 5 1 4 10 -1 8 -5 18 -8 22 -4 3 -5
-1 -4 -10z"/>
<path d="M7696 2118 c3 -5 10 -6 15 -3 13 9 11 12 -6 12 -8 0 -12 -4 -9 -9z"/>
<path d="M7666 2058 c3 -5 10 -6 15 -3 13 9 11 12 -6 12 -8 0 -12 -4 -9 -9z"/>
<path d="M936 1995 c-9 -26 -7 -32 5 -12 6 10 9 21 6 23 -2 3 -7 -2 -11 -11z"/>
<path d="M1019 1888 c-5 -18 -6 -38 -1 -34 7 8 12 36 6 36 -2 0 -4 -1 -5 -2z"/>
<path d="M7536 1882 c-2 -4 -1 -14 4 -22 7 -11 9 -9 7 8 -1 24 -3 26 -11 14z"/>
<path d="M7493 1835 c0 -8 4 -12 9 -9 5 3 6 10 3 15 -9 13 -12 11 -12 -6z"/>
<path d="M7556 1787 c3 -10 9 -15 12 -12 3 3 0 11 -7 18 -10 9 -11 8 -5 -6z"/>
<path d="M7410 1760 c0 -5 5 -10 11 -10 5 0 7 5 4 10 -3 6 -8 10 -11 10 -2 0
-4 -4 -4 -10z"/>
<path d="M1120 1720 c-12 -7 -10 -9 7 -7 12 0 19 5 17 9 -6 10 -6 10 -24 -2z"/>
<path d="M7416 1718 c3 -5 10 -6 15 -3 13 9 11 12 -6 12 -8 0 -12 -4 -9 -9z"/>
<path d="M1186 1662 c-3 -5 1 -9 9 -9 8 0 12 4 9 9 -3 4 -7 8 -9 8 -2 0 -6 -4
-9 -8z"/>
<path d="M7336 1638 c3 -5 10 -6 15 -3 13 9 11 12 -6 12 -8 0 -12 -4 -9 -9z"/>
<path d="M7295 1611 c-3 -5 -2 -12 3 -15 5 -3 9 1 9 9 0 17 -3 19 -12 6z"/>
<path d="M7255 1571 c-3 -5 -2 -12 3 -15 5 -3 9 1 9 9 0 17 -3 19 -12 6z"/>
<path d="M1295 1540 c-3 -5 -1 -10 4 -10 6 0 11 5 11 10 0 6 -2 10 -4 10 -3 0
-8 -4 -11 -10z"/>
<path d="M1335 1481 c-3 -5 -2 -12 3 -15 5 -3 9 1 9 9 0 17 -3 19 -12 6z"/>
<path d="M1410 1480 c0 -5 5 -10 11 -10 5 0 7 5 4 10 -3 6 -8 10 -11 10 -2 0
-4 -4 -4 -10z"/>
<path d="M7230 1481 c0 -6 4 -13 10 -16 6 -3 7 1 4 9 -7 18 -14 21 -14 7z"/>
<path d="M1415 1440 c3 -5 8 -10 11 -10 2 0 4 5 4 10 0 6 -5 10 -11 10 -5 0
-7 -4 -4 -10z"/>
<path d="M1447 1439 c7 -7 15 -10 18 -7 3 3 -2 9 -12 12 -14 6 -15 5 -6 -5z"/>
<path d="M7155 1440 c3 -5 8 -10 11 -10 2 0 4 5 4 10 0 6 -5 10 -11 10 -5 0
-7 -4 -4 -10z"/>
<path d="M1455 1400 c3 -5 8 -10 11 -10 2 0 4 5 4 10 0 6 -5 10 -11 10 -5 0
-7 -4 -4 -10z"/>
<path d="M1540 1346 c0 -2 8 -10 18 -17 15 -13 16 -12 3 4 -13 16 -21 21 -21
13z"/>
<path d="M7055 1340 c-3 -5 -1 -10 4 -10 6 0 11 5 11 10 0 6 -2 10 -4 10 -3 0
-8 -4 -11 -10z"/>
<path d="M1535 1300 c-3 -5 -1 -10 4 -10 6 0 11 5 11 10 0 6 -2 10 -4 10 -3 0
-8 -4 -11 -10z"/>
<path d="M7013 1291 c0 -11 5 -18 9 -15 4 3 5 11 1 19 -7 21 -12 19 -10 -4z"/>
<path d="M1610 1279 c0 -5 5 -7 10 -4 6 3 10 8 10 11 0 2 -4 4 -10 4 -5 0 -10
-5 -10 -11z"/>
<path d="M1580 1266 c0 -2 8 -10 18 -17 15 -13 16 -12 3 4 -13 16 -21 21 -21
13z"/>
<path d="M6933 1245 c0 -8 4 -12 9 -9 5 3 6 10 3 15 -9 13 -12 11 -12 -6z"/>
<path d="M1670 1226 c0 -2 7 -7 16 -10 8 -3 12 -2 9 4 -6 10 -25 14 -25 6z"/>
<path d="M1596 1207 c3 -10 9 -15 12 -12 3 3 0 11 -7 18 -10 9 -11 8 -5 -6z"/>
<path d="M6815 1180 c3 -5 8 -10 11 -10 2 0 4 5 4 10 0 6 -5 10 -11 10 -5 0
-7 -4 -4 -10z"/>
<path d="M1739 1148 c-5 -18 -6 -38 -1 -34 7 8 12 36 6 36 -2 0 -4 -1 -5 -2z"/>
<path d="M6785 1140 c-3 -6 1 -7 9 -4 18 7 21 14 7 14 -6 0 -13 -4 -16 -10z"/>
<path d="M1700 1066 c0 -2 8 -10 18 -17 15 -13 16 -12 3 4 -13 16 -21 21 -21
13z"/>
<path d="M6635 1061 c-3 -5 -2 -12 3 -15 5 -3 9 1 9 9 0 17 -3 19 -12 6z"/>
<path d="M6736 1042 c-3 -5 1 -9 9 -9 8 0 12 4 9 9 -3 4 -7 8 -9 8 -2 0 -6 -4
-9 -8z"/>
<path d="M1780 1026 c0 -2 8 -10 18 -17 15 -13 16 -12 3 4 -13 16 -21 21 -21
13z"/>
<path d="M6659 1028 c-5 -18 -6 -38 -1 -34 7 8 12 36 6 36 -2 0 -4 -1 -5 -2z"/>
<path d="M1894 996 c1 -8 5 -18 8 -22 4 -3 5 1 4 10 -1 8 -5 18 -8 22 -4 3 -5
-1 -4 -10z"/>
<path d="M1996 987 c3 -10 9 -15 12 -12 3 3 0 11 -7 18 -10 9 -11 8 -5 -6z"/>
<path d="M2030 981 c0 -6 4 -13 10 -16 6 -3 7 1 4 9 -7 18 -14 21 -14 7z"/>
<path d="M1956 938 c3 -5 10 -6 15 -3 13 9 11 12 -6 12 -8 0 -12 -4 -9 -9z"/>
<path d="M2046 882 c-3 -5 1 -9 9 -9 8 0 12 4 9 9 -3 4 -7 8 -9 8 -2 0 -6 -4
-9 -8z"/>
<path d="M2186 858 c3 -5 10 -6 15 -3 13 9 11 12 -6 12 -8 0 -12 -4 -9 -9z"/>
<path d="M2076 833 c-6 -14 -5 -15 5 -6 7 7 10 15 7 18 -3 3 -9 -2 -12 -12z"/>
<path d="M6370 839 c0 -5 5 -7 10 -4 6 3 10 8 10 11 0 2 -4 4 -10 4 -5 0 -10
-5 -10 -11z"/>
<path d="M6415 839 c-3 -4 2 -6 10 -5 21 3 28 13 10 13 -9 0 -18 -4 -20 -8z"/>
<path d="M2189 823 c-13 -16 -12 -17 4 -4 16 13 21 21 13 21 -2 0 -10 -8 -17
-17z"/>
<path d="M6214 736 c1 -8 5 -18 8 -22 4 -3 5 1 4 10 -1 8 -5 18 -8 22 -4 3 -5
-1 -4 -10z"/>
<path d="M2519 693 c-13 -16 -12 -17 4 -4 16 13 21 21 13 21 -2 0 -10 -8 -17
-17z"/>
<path d="M5980 666 c0 -2 8 -10 18 -17 15 -13 16 -12 3 4 -13 16 -21 21 -21
13z"/>
<path d="M6053 629 c-2 -23 3 -25 10 -4 4 8 3 16 -1 19 -4 3 -9 -4 -9 -15z"/>
<path d="M2655 600 c3 -5 8 -10 11 -10 2 0 4 5 4 10 0 6 -5 10 -11 10 -5 0 -7
-4 -4 -10z"/>
<path d="M5895 600 c-3 -5 -1 -10 4 -10 6 0 11 5 11 10 0 6 -2 10 -4 10 -3 0
-8 -4 -11 -10z"/>
<path d="M5976 602 c-3 -5 1 -9 9 -9 8 0 12 4 9 9 -3 4 -7 8 -9 8 -2 0 -6 -4
-9 -8z"/>
<path d="M2596 567 c3 -10 9 -15 12 -12 3 3 0 11 -7 18 -10 9 -11 8 -5 -6z"/>
<path d="M2650 565 c0 -7 30 -13 34 -7 3 4 -4 9 -15 9 -10 1 -19 0 -19 -2z"/>
<path d="M5719 533 c-13 -16 -12 -17 4 -4 9 7 17 15 17 17 0 8 -8 3 -21 -13z"/>
<path d="M2675 520 c-3 -5 -1 -10 4 -10 6 0 11 5 11 10 0 6 -2 10 -4 10 -3 0
-8 -4 -11 -10z"/>
<path d="M2735 519 c-3 -4 2 -6 10 -5 21 3 28 13 10 13 -9 0 -18 -4 -20 -8z"/>
<path d="M2959 493 c-13 -16 -12 -17 4 -4 16 13 21 21 13 21 -2 0 -10 -8 -17
-17z"/>
<path d="M3024 502 c4 -3 14 -7 22 -8 9 -1 13 0 10 4 -4 3 -14 7 -22 8 -9 1
-13 0 -10 -4z"/>
<path d="M2853 485 c0 -8 4 -12 9 -9 5 3 6 10 3 15 -9 13 -12 11 -12 -6z"/>
<path d="M5650 480 c0 -5 5 -10 11 -10 5 0 7 5 4 10 -3 6 -8 10 -11 10 -2 0
-4 -4 -4 -10z"/>
<path d="M3035 469 c-4 -6 -5 -12 -2 -15 2 -3 7 2 10 11 7 17 1 20 -8 4z"/>
<path d="M3156 453 c-6 -14 -5 -15 5 -6 7 7 10 15 7 18 -3 3 -9 -2 -12 -12z"/>
<path d="M5470 461 c0 -6 4 -12 8 -15 5 -3 9 1 9 9 0 8 -4 15 -9 15 -4 0 -8
-4 -8 -9z"/>
<path d="M5505 460 c-3 -6 1 -7 9 -4 18 7 21 14 7 14 -6 0 -13 -4 -16 -10z"/>
<path d="M5679 453 c-13 -16 -12 -17 4 -4 9 7 17 15 17 17 0 8 -8 3 -21 -13z"/>
<path d="M3090 439 c0 -5 5 -7 10 -4 6 3 10 8 10 11 0 2 -4 4 -10 4 -5 0 -10
-5 -10 -11z"/>
<path d="M3260 426 c0 -2 8 -10 18 -17 15 -13 16 -12 3 4 -13 16 -21 21 -21
13z"/>
<path d="M3316 413 c-6 -14 -5 -15 5 -6 7 7 10 15 7 18 -3 3 -9 -2 -12 -12z"/>
<path d="M3340 426 c0 -2 8 -10 18 -17 15 -13 16 -12 3 4 -13 16 -21 21 -21
13z"/>
<path d="M3376 418 c3 -5 10 -6 15 -3 13 9 11 12 -6 12 -8 0 -12 -4 -9 -9z"/>
<path d="M3056 402 c-3 -5 1 -9 9 -9 8 0 12 4 9 9 -3 4 -7 8 -9 8 -2 0 -6 -4
-9 -8z"/>
<path d="M5533 395 c0 -8 4 -12 9 -9 5 3 6 10 3 15 -9 13 -12 11 -12 -6z"/>
<path d="M5149 383 c-13 -16 -12 -17 4 -4 16 13 21 21 13 21 -2 0 -10 -8 -17
-17z"/>
<path d="M3495 380 c3 -5 8 -10 11 -10 2 0 4 5 4 10 0 6 -5 10 -11 10 -5 0 -7
-4 -4 -10z"/>
<path d="M3675 361 c-3 -5 -2 -12 3 -15 5 -3 9 1 9 9 0 17 -3 19 -12 6z"/>
<path d="M5090 359 c0 -5 5 -7 10 -4 6 3 10 8 10 11 0 2 -4 4 -10 4 -5 0 -10
-5 -10 -11z"/>
<path d="M5255 360 c3 -5 8 -10 11 -10 2 0 4 5 4 10 0 6 -5 10 -11 10 -5 0 -7
-4 -4 -10z"/>
<path d="M3235 340 c3 -5 8 -10 11 -10 2 0 4 5 4 10 0 6 -5 10 -11 10 -5 0 -7
-4 -4 -10z"/>
<path d="M3453 331 c0 -11 5 -18 9 -15 4 3 5 11 1 19 -7 21 -12 19 -10 -4z"/>
<path d="M4860 346 c0 -2 8 -10 18 -17 15 -13 16 -12 3 4 -13 16 -21 21 -21
13z"/>
<path d="M3374 322 c4 -3 14 -7 22 -8 9 -1 13 0 10 4 -4 3 -14 7 -22 8 -9 1
-13 0 -10 -4z"/>
<path d="M3490 319 c0 -5 5 -7 10 -4 6 3 10 8 10 11 0 2 -4 4 -10 4 -5 0 -10
-5 -10 -11z"/>
<path d="M4530 320 c0 -5 5 -10 11 -10 5 0 7 5 4 10 -3 6 -8 10 -11 10 -2 0
-4 -4 -4 -10z"/>
<path d="M4655 320 c-3 -5 -1 -10 4 -10 6 0 11 5 11 10 0 6 -2 10 -4 10 -3 0
-8 -4 -11 -10z"/>
<path d="M5216 322 c-3 -5 1 -9 9 -9 8 0 12 4 9 9 -3 4 -7 8 -9 8 -2 0 -6 -4
-9 -8z"/>
<path d="M4256 298 c3 -5 10 -6 15 -3 13 9 11 12 -6 12 -8 0 -12 -4 -9 -9z"/>
<path d="M4876 298 c3 -5 10 -6 15 -3 13 9 11 12 -6 12 -8 0 -12 -4 -9 -9z"/>
<path d="M4915 300 c-3 -5 -1 -10 4 -10 6 0 11 5 11 10 0 6 -2 10 -4 10 -3 0
-8 -4 -11 -10z"/>
<path d="M4990 301 c0 -6 4 -13 10 -16 6 -3 7 1 4 9 -7 18 -14 21 -14 7z"/>
<path d="M3615 280 c3 -5 8 -10 11 -10 2 0 4 5 4 10 0 6 -5 10 -11 10 -5 0 -7
-4 -4 -10z"/>
<path d="M3930 280 c0 -5 5 -10 11 -10 5 0 7 5 4 10 -3 6 -8 10 -11 10 -2 0
-4 -4 -4 -10z"/>
<path d="M4015 280 c3 -5 8 -10 11 -10 2 0 4 5 4 10 0 6 -5 10 -11 10 -5 0 -7
-4 -4 -10z"/>
<path d="M3660 266 c0 -2 8 -10 18 -17 15 -13 16 -12 3 4 -13 16 -21 21 -21
13z"/>
<path d="M4615 260 c-3 -5 -1 -10 4 -10 6 0 11 5 11 10 0 6 -2 10 -4 10 -3 0
-8 -4 -11 -10z"/>
<path d="M4653 251 c0 -11 5 -18 9 -15 4 3 5 11 1 19 -7 21 -12 19 -10 -4z"/>
<path d="M4895 259 c-3 -4 2 -6 10 -5 21 3 28 13 10 13 -9 0 -18 -4 -20 -8z"/>
<path d="M4533 245 c0 -8 4 -12 9 -9 5 3 6 10 3 15 -9 13 -12 11 -12 -6z"/>
<path d="M3775 241 c-3 -5 -2 -12 3 -15 5 -3 9 1 9 9 0 17 -3 19 -12 6z"/>
<path d="M3914 242 c4 -3 14 -7 22 -8 9 -1 13 0 10 4 -4 3 -14 7 -22 8 -9 1
-13 0 -10 -4z"/>
<path d="M4010 240 c0 -5 5 -10 11 -10 5 0 7 5 4 10 -3 6 -8 10 -11 10 -2 0
-4 -4 -4 -10z"/>
<path d="M4095 240 c3 -5 8 -10 11 -10 2 0 4 5 4 10 0 6 -5 10 -11 10 -5 0 -7
-4 -4 -10z"/>
<path d="M4290 239 c0 -5 5 -7 10 -4 6 3 10 8 10 11 0 2 -4 4 -10 4 -5 0 -10
-5 -10 -11z"/>
<path d="M4455 240 c3 -5 8 -10 11 -10 2 0 4 5 4 10 0 6 -5 10 -11 10 -5 0 -7
-4 -4 -10z"/>
<path d="M3835 231 c-3 -5 -2 -12 3 -15 5 -3 9 1 9 9 0 17 -3 19 -12 6z"/>
</g>
</svg>
