<svg id="Component_1_1" data-name="Component 1 – 1" xmlns="http://www.w3.org/2000/svg" width="167" height="37" viewBox="0 0 167 37">
  <path id="instagram" d="M24,18a6,6,0,0,0-6-6,6,6,0,0,0-6,6,6,6,0,0,0,6,6,6,6,0,0,0,6-6Zm3.234,0A9.2,9.2,0,0,1,18,27.234,9.2,9.2,0,0,1,8.766,18,9.2,9.2,0,0,1,18,8.766,9.2,9.2,0,0,1,27.234,18Zm2.531-9.609a2.156,2.156,0,1,1-3.679-1.523,2.156,2.156,0,0,1,3.679,1.523ZM18,3.234l-1.793-.012q-1.629-.012-2.473,0t-2.262.07a18.483,18.483,0,0,0-2.414.234,9.314,9.314,0,0,0-1.675.435A6.13,6.13,0,0,0,3.961,7.383a9.4,9.4,0,0,0-.434,1.676,18.483,18.483,0,0,0-.234,2.414q-.058,1.418-.07,2.262t0,2.473q.012,1.629.012,1.793t-.012,1.793q-.012,1.629,0,2.473t.07,2.262a18.483,18.483,0,0,0,.234,2.414,9.349,9.349,0,0,0,.434,1.674,6.13,6.13,0,0,0,3.422,3.422,9.4,9.4,0,0,0,1.676.434,18.484,18.484,0,0,0,2.414.234q1.418.058,2.262.07t2.473,0L18,32.765l1.793.012q1.629.012,2.473,0t2.262-.07a18.482,18.482,0,0,0,2.414-.234,9.406,9.406,0,0,0,1.676-.434,6.13,6.13,0,0,0,3.422-3.422,9.4,9.4,0,0,0,.434-1.676,18.484,18.484,0,0,0,.234-2.414q.058-1.418.07-2.262t0-2.473q-.012-1.629-.012-1.793t.012-1.793q.012-1.629,0-2.473t-.07-2.262a18.482,18.482,0,0,0-.234-2.414,9.226,9.226,0,0,0-.436-1.674,6.13,6.13,0,0,0-3.422-3.422,9.4,9.4,0,0,0-1.676-.434,18.483,18.483,0,0,0-2.414-.234q-1.418-.058-2.262-.07t-2.473,0L18,3.235ZM36,18q0,5.367-.117,7.43a10.994,10.994,0,0,1-2.906,7.547,10.994,10.994,0,0,1-7.547,2.906Q23.367,36,18,36t-7.43-.117a10.994,10.994,0,0,1-7.547-2.906A10.994,10.994,0,0,1,.117,25.43Q0,23.367,0,18t.117-7.43A10.994,10.994,0,0,1,3.023,3.023,10.994,10.994,0,0,1,10.57.117Q12.633,0,18,0t7.43.117a10.994,10.994,0,0,1,7.547,2.906,10.994,10.994,0,0,1,2.906,7.547Q36,12.633,36,18Z" transform="translate(131 1)" fill="#fff"/>
  <path id="facebook" d="M36,18A18,18,0,1,0,15.186,35.778V23.2H10.617V18h4.569V14.034c0-4.512,2.688-7,6.8-7a27.706,27.706,0,0,1,4.029.351v4.429H23.745a2.6,2.6,0,0,0-2.933,2.811V18H25.8l-.8,5.2H20.812V35.78A18,18,0,0,0,36,18Z" transform="translate(66 1)" fill="#fff"/>
  <path id="circletwitter" d="M18,36a17.657,17.657,0,0,1-7-1.424A17.613,17.613,0,0,1,1.424,25,17.9,17.9,0,0,1,1.424,11,17.613,17.613,0,0,1,11,1.424,17.9,17.9,0,0,1,25,1.424,17.613,17.613,0,0,1,34.576,11a17.9,17.9,0,0,1,0,13.992A17.613,17.613,0,0,1,25,34.576,17.657,17.657,0,0,1,18,36ZM28.582,9a6.5,6.5,0,0,0-.633.387l-.686.457-.65.352-.738.246A4.143,4.143,0,0,0,22.676,9q-4.113,0-4.113,3.445V14.52a11.121,11.121,0,0,1-8.684-4.148,2.839,2.839,0,0,0-.879,2,4.006,4.006,0,0,0,1.723,3.516q-.211,0-.6.035a2.665,2.665,0,0,1-.615,0A1.762,1.762,0,0,1,9,15.751a4.157,4.157,0,0,0,.861,2.689,3.97,3.97,0,0,0,2.373,1.388,1.211,1.211,0,0,1-.984.422,1.594,1.594,0,0,1-.984-.316,2.346,2.346,0,0,0,1.318,2.127,6.132,6.132,0,0,0,2.971.791,3.812,3.812,0,0,1-1.846,1.424,7.009,7.009,0,0,1-2.584.474A5.288,5.288,0,0,1,8.771,24.5q-.862-.246-.9-.246a4.594,4.594,0,0,0,2.3,1.934A10.473,10.473,0,0,0,14.59,27a11.6,11.6,0,0,0,4.4-.826,10.932,10.932,0,0,0,3.48-2.2,14.435,14.435,0,0,0,2.479-3.129,14.629,14.629,0,0,0,1.547-3.639A14.213,14.213,0,0,0,27,13.5q0-.07.422-.3a11.344,11.344,0,0,0,.984-.615,3.11,3.11,0,0,0,.844-.809q-1.9,0-2.531.07A4.724,4.724,0,0,0,28.582,9Z" fill="#fdfdfd"/>
</svg>
